<svg width="613" height="511" viewBox="0 0 613 511" fill="none" xmlns="http://www.w3.org/2000/svg">
<g filter="url(#filter0_iiii_11_2)">
<path d="M42.2667 -27.2C42.2667 -32.4866 44.4932 -37.5568 48.4565 -41.295C52.4197 -45.0332 57.7951 -47.1333 63.4 -47.1333L42.2667 -27.2C47.8716 -27.2 53.2469 -29.3001 57.2102 -33.0383C61.1735 -36.7766 63.4 -41.8467 63.4 -47.1333" fill="#FCFCFC"/>
<path d="M147.933 -47.1333C150.709 -47.1333 153.457 -46.6177 156.021 -45.616C158.585 -44.6143 160.914 -43.146 162.877 -41.295C164.839 -39.444 166.396 -37.2466 167.458 -34.8282C168.52 -32.4097 169.067 -29.8177 169.067 -27.2L147.933 -47.1333C147.933 -41.8467 150.16 -36.7766 154.123 -33.0383C158.086 -29.3001 163.462 -27.2 169.067 -27.2" fill="#9E9E9E"/>
<path d="M253.6 -47.1333C259.205 -47.1333 264.58 -45.0332 268.544 -41.295C272.507 -37.5568 274.733 -32.4866 274.733 -27.2L253.6 -47.1333C253.6 -41.8467 255.827 -36.7766 259.79 -33.0383C263.753 -29.3001 269.128 -27.2 274.733 -27.2" fill="#F5F5F5"/>
<path d="M359.267 -27.2C359.267 -32.4866 361.493 -37.5568 365.456 -41.295C369.42 -45.0332 374.795 -47.1333 380.4 -47.1333L359.267 -27.2C364.872 -27.2 370.247 -29.3001 374.21 -33.0383C378.173 -36.7766 380.4 -41.8467 380.4 -47.1333" fill="#F0F0F0"/>
<path d="M176 -14C186.089 -14 195.764 -10.2198 202.898 -3.491C210.032 3.23781 214.04 12.364 214.04 21.88L176 -14C176 -4.48403 180.008 4.64218 187.142 11.371C194.276 18.0998 203.951 21.88 214.04 21.88" fill="#F7F7F7"/>
<path d="M350.813 80.44C350.813 70.924 354.821 61.7978 361.955 55.069C369.089 48.3402 378.765 44.56 388.853 44.56L350.813 80.44C360.902 80.44 370.578 76.6598 377.712 69.931C384.846 63.2022 388.853 54.076 388.853 44.56" fill="#F5F5F5"/>
<path d="M562.147 44.56C572.236 44.56 581.911 48.3402 589.045 55.069C596.179 61.7978 600.187 70.924 600.187 80.44L562.147 44.56C562.147 54.076 566.154 63.2022 573.288 69.931C580.422 76.6598 590.098 80.44 600.187 80.44" fill="#FCFCFC"/>
<path d="M273.588 266.363C266.406 254.643 264.454 240.379 268.162 226.707C271.87 213.036 280.933 201.078 293.359 193.464L273.588 266.363C286.013 258.749 295.077 246.791 298.785 233.119C302.492 219.448 300.54 205.184 293.359 193.464" fill="#EBEBEB"/>
<path d="M428.074 279.542C431.747 266.297 440.849 255.141 453.376 248.529C465.903 241.917 480.83 240.39 494.872 244.284L428.074 279.542C442.117 283.437 457.044 281.91 469.571 275.298C482.098 268.686 491.199 257.53 494.872 244.284" fill="#FEFEFE"/>
<path d="M11.6615 227.02C14.7827 209.318 25.2314 193.656 40.7088 183.479C56.1863 173.302 75.4247 169.444 94.1919 172.753L11.6615 227.02C20.954 228.658 30.46 228.555 39.6366 226.714C48.8133 224.874 57.4809 221.333 65.1445 216.294C72.8082 211.255 79.3178 204.816 84.3018 197.345C89.2857 189.875 92.6464 181.518 94.1919 172.753" fill="#F1F1F1"/>
<path d="M142 132C151.436 132 160.779 133.753 169.497 137.159C178.215 140.565 186.136 145.557 192.808 151.85C199.48 158.144 204.773 165.615 208.384 173.838C211.995 182.06 213.853 190.873 213.853 199.773L142 132C142 149.975 149.57 167.213 163.045 179.923C176.52 192.633 194.797 199.773 213.853 199.773" fill="#FBFBFB"/>
<path d="M239 112.773C239 94.7987 246.57 77.5603 260.045 64.8503C273.52 52.1404 291.797 45 310.853 45L239 112.773C258.057 112.773 276.333 105.633 289.808 92.923C303.283 80.213 310.853 62.9746 310.853 45" fill="#B1B1B1"/>
<path d="M413.332 116.631C427.382 129.506 436.033 147.117 437.381 165.592C438.729 184.066 432.665 201.89 420.521 215.142L413.332 116.631C401.189 129.883 395.124 147.707 396.472 166.182C397.82 184.656 406.471 202.268 420.521 215.142" fill="#CECECE"/>
<path d="M453 127.773C453 109.799 460.57 92.5603 474.045 79.8503C487.52 67.1404 505.797 60 524.853 60L453 127.773C472.057 127.773 490.333 120.633 503.808 107.923C517.283 95.213 524.853 77.9746 524.853 60" fill="#C3C3C3"/>
<path d="M550 200.387C564.813 190.206 583.308 186.681 601.415 190.587C619.522 194.494 635.758 205.511 646.552 221.216L550 200.387C560.794 216.092 577.03 227.11 595.137 231.016C613.244 234.922 631.739 231.397 646.552 221.216" fill="#C3C3C3"/>
<path d="M43.6215 316.424C51.1343 303.92 63.1258 294.805 76.9579 291.083C90.79 287.361 105.33 289.337 117.378 296.576L43.6215 316.424C55.6702 323.663 70.21 325.639 84.0421 321.917C97.8742 318.195 109.866 309.08 117.378 296.576" fill="#F1F1F1"/>
<path d="M158 320C181.541 320 204.117 328.82 220.763 344.521C237.409 360.222 246.76 381.516 246.76 403.72L158 320C158 342.204 167.351 363.498 183.997 379.199C200.643 394.9 223.219 403.72 246.76 403.72" fill="#D6D6D6"/>
<path d="M306.803 302.14C315.291 298.967 324.284 297.4 333.269 297.528C342.254 297.655 351.056 299.476 359.171 302.886C367.286 306.296 374.556 311.228 380.566 317.4C386.576 323.572 391.208 330.864 394.197 338.86L306.803 302.14C312.84 318.288 325.44 331.228 341.829 338.114C358.219 345 377.056 345.268 394.197 338.86" fill="#F0F0F0"/>
<path d="M0 477.667C0 451.233 11.1327 425.883 30.949 407.192C50.7654 388.501 77.6421 378 105.667 378L0 477.667C28.0245 477.667 54.9013 467.166 74.7176 448.475C94.534 429.784 105.667 404.433 105.667 378" fill="#F3F3F3"/>
<path d="M142 411C165.339 411 187.722 419.955 204.225 435.896C220.729 451.837 230 473.457 230 496L142 411C142 433.543 151.271 455.163 167.775 471.104C184.278 487.045 206.661 496 230 496" fill="#F0F0F0"/>
<path d="M275.354 484.479C271.328 465.542 274.682 445.846 284.676 429.726C294.67 413.605 310.487 402.381 328.646 398.521L275.354 484.479C293.513 480.619 309.33 469.395 319.324 453.274C329.318 437.154 332.672 417.458 328.646 398.521" fill="#A4A4A4"/>
<path d="M425 432.667C425 406.233 436.133 380.883 455.949 362.192C475.765 343.501 502.642 333 530.667 333L425 432.667C453.025 432.667 479.901 422.166 499.718 403.475C519.534 384.784 530.667 359.433 530.667 333" fill="#818181"/>
</g>
<defs>
<filter id="filter0_iiii_11_2" x="-3" y="-90" width="652.552" height="604" filterUnits="userSpaceOnUse" color-interpolation-filters="sRGB">
<feFlood flood-opacity="0" result="BackgroundImageFix"/>
<feBlend mode="normal" in="SourceGraphic" in2="BackgroundImageFix" result="shape"/>
<feColorMatrix in="SourceAlpha" type="matrix" values="0 0 0 0 0 0 0 0 0 0 0 0 0 0 0 0 0 0 127 0" result="hardAlpha"/>
<feOffset dx="3" dy="3"/>
<feGaussianBlur stdDeviation="4"/>
<feComposite in2="hardAlpha" operator="arithmetic" k2="-1" k3="1"/>
<feColorMatrix type="matrix" values="0 0 0 0 0.203922 0 0 0 0 0.203922 0 0 0 0 0.203922 0 0 0 0.9 0"/>
<feBlend mode="normal" in2="shape" result="effect1_innerShadow_11_2"/>
<feColorMatrix in="SourceAlpha" type="matrix" values="0 0 0 0 0 0 0 0 0 0 0 0 0 0 0 0 0 0 127 0" result="hardAlpha"/>
<feOffset dx="-3" dy="-3"/>
<feGaussianBlur stdDeviation="3"/>
<feComposite in2="hardAlpha" operator="arithmetic" k2="-1" k3="1"/>
<feColorMatrix type="matrix" values="0 0 0 0 0.807843 0 0 0 0 0.807843 0 0 0 0 0.807843 0 0 0 0.9 0"/>
<feBlend mode="normal" in2="effect1_innerShadow_11_2" result="effect2_innerShadow_11_2"/>
<feColorMatrix in="SourceAlpha" type="matrix" values="0 0 0 0 0 0 0 0 0 0 0 0 0 0 0 0 0 0 127 0" result="hardAlpha"/>
<feOffset dx="3" dy="-3"/>
<feGaussianBlur stdDeviation="3"/>
<feComposite in2="hardAlpha" operator="arithmetic" k2="-1" k3="1"/>
<feColorMatrix type="matrix" values="0 0 0 0 0.203922 0 0 0 0 0.203922 0 0 0 0 0.203922 0 0 0 0.2 0"/>
<feBlend mode="normal" in2="effect2_innerShadow_11_2" result="effect3_innerShadow_11_2"/>
<feColorMatrix in="SourceAlpha" type="matrix" values="0 0 0 0 0 0 0 0 0 0 0 0 0 0 0 0 0 0 127 0" result="hardAlpha"/>
<feOffset dx="-3" dy="3"/>
<feGaussianBlur stdDeviation="3"/>
<feComposite in2="hardAlpha" operator="arithmetic" k2="-1" k3="1"/>
<feColorMatrix type="matrix" values="0 0 0 0 0.203922 0 0 0 0 0.203922 0 0 0 0 0.203922 0 0 0 0.2 0"/>
<feBlend mode="normal" in2="effect3_innerShadow_11_2" result="effect4_innerShadow_11_2"/>
</filter>
</defs>
</svg>
